<svg xmlns="http://www.w3.org/2000/svg" xmlns:xlink="http://www.w3.org/1999/xlink" width="50" zoomAndPan="magnify" viewBox="0 0 37.5 37.499999" height="50" preserveAspectRatio="xMidYMid meet" version="1.0"><defs><clipPath id="c5f2afb6a4"><path d="M 0 1.828125 L 37.007812 1.828125 L 37.007812 35.578125 L 0 35.578125 Z M 0 1.828125 " clip-rule="nonzero"/></clipPath></defs><g clip-path="url(#c5f2afb6a4)"><path fill="#dd9b4e" d="M 37.445312 23.40625 C 37.386719 23.210938 37.191406 23.042969 36.996094 23.015625 L 32.199219 22.320312 L 30.050781 17.980469 C 29.964844 17.785156 29.769531 17.671875 29.546875 17.671875 C 29.324219 17.671875 29.128906 17.785156 29.046875 17.980469 L 27.457031 21.207031 L 27.457031 15.363281 C 27.457031 13.863281 25.976562 12.609375 23.773438 12.191406 C 23.492188 12.136719 23.214844 12.109375 22.933594 12.082031 C 23.773438 10.96875 24.21875 9.550781 24.21875 8.074219 C 24.21875 4.625 21.761719 1.839844 18.722656 1.839844 C 15.679688 1.839844 13.226562 4.652344 13.226562 8.074219 C 13.226562 9.550781 13.699219 10.96875 14.507812 12.082031 C 14.230469 12.109375 13.949219 12.136719 13.671875 12.191406 C 11.46875 12.609375 10.015625 13.863281 10.015625 15.363281 L 10.015625 21.207031 L 8.425781 18.007812 C 8.34375 17.8125 8.148438 17.703125 7.925781 17.703125 C 7.699219 17.703125 7.503906 17.8125 7.421875 18.007812 L 5.273438 22.347656 L 0.503906 23.042969 C 0.277344 23.070312 0.113281 23.210938 0.0546875 23.433594 C 0 23.65625 0.0546875 23.851562 0.195312 24.019531 L 3.65625 27.382812 L 2.847656 32.113281 C 2.816406 32.335938 2.902344 32.53125 3.070312 32.671875 C 3.152344 32.753906 3.292969 32.78125 3.402344 32.78125 C 3.488281 32.78125 3.570312 32.753906 3.65625 32.726562 L 7.953125 30.472656 L 12.25 32.726562 C 12.445312 32.839844 12.667969 32.808594 12.835938 32.671875 C 13.003906 32.558594 13.085938 32.335938 13.058594 32.113281 L 12.304688 27.71875 L 13.894531 29.25 L 12.890625 34.871094 C 12.863281 35.089844 12.945312 35.285156 13.113281 35.425781 C 13.28125 35.535156 13.503906 35.566406 13.699219 35.480469 L 18.75 32.839844 L 23.800781 35.480469 C 23.882812 35.535156 23.96875 35.535156 24.050781 35.535156 C 24.164062 35.535156 24.273438 35.507812 24.386719 35.425781 C 24.554688 35.3125 24.636719 35.089844 24.609375 34.871094 L 23.632812 29.277344 L 25.222656 27.746094 L 24.46875 32.140625 C 24.441406 32.363281 24.527344 32.558594 24.691406 32.699219 C 24.859375 32.808594 25.082031 32.839844 25.277344 32.753906 L 29.574219 30.5 L 33.84375 32.753906 C 33.929688 32.808594 34.011719 32.808594 34.097656 32.808594 C 34.207031 32.808594 34.320312 32.78125 34.429688 32.699219 C 34.597656 32.585938 34.683594 32.363281 34.652344 32.140625 L 33.84375 27.382812 L 37.304688 23.988281 C 37.445312 23.851562 37.5 23.628906 37.445312 23.40625 Z M 18.75 3.011719 C 21.175781 3.011719 23.128906 5.320312 23.128906 8.128906 C 23.128906 9.742188 22.488281 11.273438 21.371094 12.21875 C 21.34375 12.21875 21.34375 12.246094 21.316406 12.246094 C 21.316406 12.246094 21.289062 12.277344 21.289062 12.277344 C 20.535156 12.914062 19.644531 13.25 18.722656 13.25 C 17.800781 13.25 16.910156 12.914062 16.15625 12.277344 C 16.15625 12.277344 16.128906 12.246094 16.128906 12.246094 C 16.128906 12.246094 16.097656 12.21875 16.097656 12.21875 C 15.011719 11.246094 14.339844 9.714844 14.339844 8.128906 C 14.371094 5.320312 16.324219 3.011719 18.75 3.011719 Z M 11.160156 15.417969 C 11.160156 14.5 12.304688 13.640625 13.921875 13.359375 C 14.3125 13.277344 14.703125 13.25 15.121094 13.25 L 15.597656 13.25 C 15.625 13.277344 15.679688 13.304688 15.707031 13.332031 C 15.765625 13.386719 15.820312 13.417969 15.902344 13.472656 C 15.960938 13.5 16.015625 13.554688 16.070312 13.582031 C 16.128906 13.640625 16.210938 13.667969 16.265625 13.695312 C 16.324219 13.722656 16.378906 13.75 16.433594 13.777344 C 16.519531 13.804688 16.574219 13.863281 16.65625 13.890625 C 16.714844 13.917969 16.769531 13.945312 16.824219 13.972656 C 16.910156 14 16.964844 14.027344 17.046875 14.054688 C 17.105469 14.085938 17.160156 14.085938 17.214844 14.113281 C 17.300781 14.140625 17.382812 14.167969 17.464844 14.195312 C 17.523438 14.222656 17.578125 14.222656 17.632812 14.222656 C 17.71875 14.25 17.800781 14.277344 17.886719 14.277344 C 17.941406 14.277344 17.96875 14.277344 18.023438 14.308594 C 18.109375 14.335938 18.21875 14.335938 18.304688 14.335938 C 18.441406 14.335938 18.582031 14.363281 18.722656 14.363281 C 18.863281 14.363281 19 14.363281 19.140625 14.335938 C 19.253906 14.335938 19.335938 14.308594 19.449219 14.308594 C 19.503906 14.308594 19.53125 14.308594 19.585938 14.277344 C 19.671875 14.25 19.753906 14.25 19.839844 14.222656 C 19.894531 14.222656 19.949219 14.195312 20.003906 14.195312 C 20.089844 14.167969 20.171875 14.140625 20.257812 14.113281 C 20.3125 14.085938 20.367188 14.085938 20.425781 14.054688 C 20.507812 14.027344 20.5625 14 20.648438 13.972656 C 20.703125 13.945312 20.757812 13.917969 20.816406 13.890625 C 20.898438 13.863281 20.953125 13.804688 21.039062 13.777344 C 21.09375 13.75 21.148438 13.722656 21.207031 13.695312 C 21.261719 13.667969 21.34375 13.609375 21.402344 13.582031 C 21.457031 13.554688 21.511719 13.5 21.566406 13.472656 C 21.625 13.417969 21.679688 13.386719 21.734375 13.332031 C 21.761719 13.304688 21.820312 13.277344 21.847656 13.25 L 22.378906 13.25 C 22.796875 13.25 23.1875 13.277344 23.578125 13.359375 C 25.195312 13.667969 26.339844 14.5 26.339844 15.417969 L 26.339844 23.15625 L 23.242188 23.15625 L 23.242188 18.84375 C 23.242188 18.535156 22.992188 18.285156 22.683594 18.285156 C 22.378906 18.285156 22.125 18.535156 22.125 18.84375 L 22.125 23.183594 L 21.597656 23.183594 L 19.253906 18.453125 C 19.167969 18.257812 18.972656 18.148438 18.75 18.148438 C 18.527344 18.148438 18.332031 18.257812 18.246094 18.453125 L 15.902344 23.183594 L 15.375 23.183594 L 15.375 18.84375 C 15.375 18.535156 15.121094 18.285156 14.816406 18.285156 C 14.507812 18.285156 14.257812 18.535156 14.257812 18.84375 L 14.257812 23.183594 L 11.160156 23.183594 Z M 11.078125 27.246094 L 11.746094 31.167969 L 8.203125 29.304688 C 8.121094 29.25 8.035156 29.25 7.953125 29.25 C 7.867188 29.25 7.785156 29.277344 7.699219 29.304688 L 4.15625 31.167969 L 4.828125 27.246094 C 4.855469 27.078125 4.800781 26.882812 4.660156 26.746094 L 1.785156 23.988281 L 5.746094 23.40625 C 5.941406 23.378906 6.082031 23.265625 6.167969 23.097656 L 7.925781 19.511719 L 9.710938 23.097656 C 9.765625 23.238281 9.90625 23.351562 10.042969 23.378906 L 10.042969 23.710938 C 10.042969 23.738281 10.042969 23.796875 10.042969 23.824219 C 10.042969 23.824219 10.042969 23.851562 10.042969 23.851562 C 10.042969 23.878906 10.042969 23.90625 10.074219 23.90625 C 10.074219 23.90625 10.074219 23.933594 10.101562 23.933594 C 10.101562 23.960938 10.128906 23.960938 10.128906 23.988281 C 10.128906 23.988281 10.15625 24.019531 10.15625 24.019531 C 10.15625 24.046875 10.183594 24.046875 10.183594 24.074219 C 10.183594 24.074219 10.210938 24.101562 10.210938 24.101562 C 10.238281 24.101562 10.238281 24.128906 10.269531 24.128906 C 10.269531 24.128906 10.296875 24.15625 10.296875 24.15625 C 10.324219 24.15625 10.324219 24.183594 10.351562 24.183594 C 10.378906 24.183594 10.378906 24.183594 10.40625 24.210938 C 10.433594 24.210938 10.433594 24.210938 10.464844 24.238281 C 10.492188 24.238281 10.492188 24.238281 10.519531 24.238281 C 10.546875 24.238281 10.546875 24.238281 10.546875 24.238281 L 10.101562 24.351562 C 9.878906 24.378906 9.710938 24.519531 9.652344 24.742188 C 9.597656 24.9375 9.652344 25.160156 9.792969 25.324219 L 11.273438 26.746094 L 11.214844 26.773438 C 11.105469 26.882812 11.019531 27.078125 11.078125 27.246094 Z M 22.488281 29.164062 L 23.296875 33.921875 L 19 31.667969 C 18.917969 31.613281 18.832031 31.613281 18.75 31.613281 C 18.667969 31.613281 18.582031 31.640625 18.5 31.667969 L 14.203125 33.921875 L 15.011719 29.164062 C 15.039062 29 14.984375 28.804688 14.84375 28.664062 L 12.445312 26.328125 L 11.382812 25.269531 L 16.183594 24.574219 C 16.378906 24.546875 16.519531 24.433594 16.601562 24.269531 L 18.75 19.957031 L 20.730469 23.988281 L 20.871094 24.296875 C 20.953125 24.460938 21.121094 24.574219 21.289062 24.601562 L 26.089844 25.296875 L 25.027344 26.355469 L 22.628906 28.691406 C 22.515625 28.804688 22.460938 29 22.488281 29.164062 Z M 32.839844 26.773438 C 32.699219 26.910156 32.644531 27.078125 32.671875 27.273438 L 33.34375 31.195312 L 29.800781 29.332031 C 29.632812 29.25 29.4375 29.25 29.269531 29.332031 L 25.726562 31.195312 L 26.394531 27.273438 C 26.421875 27.105469 26.367188 26.910156 26.226562 26.773438 L 26.199219 26.746094 L 27.679688 25.324219 C 27.816406 25.1875 27.875 24.964844 27.816406 24.742188 C 27.761719 24.546875 27.566406 24.378906 27.371094 24.351562 L 26.898438 24.296875 C 26.925781 24.296875 26.925781 24.296875 26.925781 24.296875 C 26.953125 24.296875 26.953125 24.296875 26.980469 24.296875 C 27.007812 24.296875 27.007812 24.296875 27.035156 24.269531 C 27.066406 24.269531 27.066406 24.269531 27.09375 24.238281 C 27.121094 24.238281 27.121094 24.210938 27.148438 24.210938 C 27.148438 24.210938 27.175781 24.183594 27.175781 24.183594 C 27.203125 24.183594 27.203125 24.15625 27.230469 24.15625 C 27.230469 24.15625 27.261719 24.128906 27.261719 24.128906 C 27.261719 24.128906 27.289062 24.101562 27.289062 24.074219 C 27.289062 24.074219 27.316406 24.046875 27.316406 24.046875 C 27.316406 24.019531 27.34375 24.019531 27.34375 23.988281 C 27.34375 23.988281 27.371094 23.960938 27.371094 23.960938 C 27.371094 23.933594 27.398438 23.90625 27.398438 23.90625 C 27.398438 23.90625 27.398438 23.878906 27.398438 23.878906 C 27.398438 23.851562 27.398438 23.796875 27.398438 23.765625 L 27.398438 23.433594 C 27.539062 23.378906 27.652344 23.292969 27.734375 23.15625 L 29.519531 19.566406 L 31.277344 23.15625 C 31.363281 23.320312 31.527344 23.433594 31.695312 23.460938 L 35.660156 24.046875 Z M 32.839844 26.773438 " fill-opacity="1" fill-rule="nonzero"/></g></svg>