<svg xmlns="http://www.w3.org/2000/svg" xmlns:xlink="http://www.w3.org/1999/xlink" width="50" zoomAndPan="magnify" viewBox="0 0 37.5 37.499999" height="50" preserveAspectRatio="xMidYMid meet" version="1.0"><defs><clipPath id="235f31efab"><path d="M 11.636719 16.441406 L 25.890625 16.441406 L 25.890625 32.242188 L 11.636719 32.242188 Z M 11.636719 16.441406 " clip-rule="nonzero"/></clipPath><clipPath id="38cd8db1fc"><path d="M 2 3.75 L 12 3.75 L 12 14 L 2 14 Z M 2 3.75 " clip-rule="nonzero"/></clipPath><clipPath id="a6fef2d19d"><path d="M 25 3.75 L 36 3.75 L 36 14 L 25 14 Z M 25 3.75 " clip-rule="nonzero"/></clipPath><clipPath id="a026465093"><path d="M 24.496094 13.882812 L 37.007812 13.882812 L 37.007812 29.6875 L 24.496094 29.6875 Z M 24.496094 13.882812 " clip-rule="nonzero"/></clipPath></defs><path fill="#dd9b4e" d="M 18.773438 7.394531 C 20.773438 7.394531 22.40625 9.027344 22.40625 11.027344 C 22.40625 13.03125 20.773438 14.664062 18.773438 14.664062 C 16.769531 14.664062 15.136719 13.03125 15.136719 11.027344 C 15.136719 9.027344 16.769531 7.394531 18.773438 7.394531 Z M 18.773438 15.742188 C 20.03125 15.742188 21.214844 15.25 22.101562 14.359375 C 22.992188 13.472656 23.484375 12.289062 23.484375 11.027344 C 23.484375 9.769531 22.992188 8.585938 22.101562 7.699219 C 21.214844 6.808594 20.03125 6.316406 18.773438 6.316406 C 17.511719 6.316406 16.328125 6.808594 15.441406 7.699219 C 14.550781 8.585938 14.058594 9.769531 14.058594 11.027344 C 14.058594 12.289062 14.550781 13.472656 15.441406 14.359375 C 16.328125 15.25 17.511719 15.742188 18.773438 15.742188 " fill-opacity="1" fill-rule="nonzero"/><g clip-path="url(#235f31efab)"><path fill="#dd9b4e" d="M 24.785156 20.664062 L 24.257812 26.378906 C 24.175781 26.820312 23.910156 27.207031 23.523438 27.441406 C 23.132812 27.679688 22.660156 27.734375 22.226562 27.597656 L 20.523438 27.050781 L 21.5 26.734375 C 21.984375 26.578125 22.3125 26.140625 22.332031 25.636719 L 22.714844 21.523438 C 22.742188 21.226562 22.523438 20.964844 22.226562 20.933594 C 21.929688 20.90625 21.667969 21.125 21.640625 21.421875 L 21.460938 23.367188 L 16.175781 24.03125 L 15.976562 21.472656 C 15.953125 21.175781 15.691406 20.953125 15.394531 20.976562 C 15.097656 21 14.878906 21.261719 14.898438 21.558594 L 15.105469 24.191406 C 15.105469 24.195312 15.105469 24.199219 15.109375 24.207031 C 15.136719 24.480469 15.273438 24.726562 15.492188 24.898438 C 15.671875 25.042969 15.894531 25.117188 16.121094 25.117188 C 16.164062 25.117188 16.210938 25.117188 16.257812 25.109375 L 21.355469 24.46875 L 21.253906 25.554688 C 21.253906 25.570312 21.253906 25.582031 21.253906 25.597656 C 21.253906 25.648438 21.21875 25.691406 21.171875 25.707031 L 15.316406 27.597656 C 14.882812 27.734375 14.410156 27.679688 14.019531 27.441406 C 13.636719 27.210938 13.367188 26.824219 13.285156 26.382812 L 12.769531 20.871094 C 12.769531 20.863281 12.769531 20.855469 12.765625 20.847656 C 12.636719 19.914062 12.871094 19.050781 13.417969 18.421875 C 13.917969 17.847656 14.636719 17.53125 15.4375 17.53125 L 22.160156 17.53125 C 22.8125 17.53125 23.308594 17.734375 23.777344 18.089844 C 23.851562 18.15625 23.925781 18.21875 24 18.28125 C 24.046875 18.324219 24.089844 18.371094 24.132812 18.417969 C 24.648438 18.992188 24.882812 19.792969 24.785156 20.664062 Z M 24.71875 17.46875 C 24.023438 16.816406 23.191406 16.453125 22.160156 16.453125 L 15.4375 16.453125 C 14.320312 16.453125 13.3125 16.902344 12.605469 17.714844 C 12.238281 18.136719 11.96875 18.632812 11.8125 19.191406 C 11.652344 19.761719 11.613281 20.363281 11.699219 20.984375 L 12.214844 26.507812 C 12.214844 26.519531 12.21875 26.535156 12.222656 26.546875 C 12.351562 27.304688 12.804688 27.964844 13.460938 28.363281 C 13.660156 28.484375 13.875 28.578125 14.09375 28.644531 L 14.09375 31.703125 C 14.09375 32 14.335938 32.242188 14.632812 32.242188 C 14.929688 32.242188 15.171875 32 15.171875 31.703125 L 15.171875 28.726562 C 15.332031 28.707031 15.492188 28.671875 15.644531 28.625 L 18.757812 27.621094 L 21.898438 28.625 C 22.054688 28.671875 22.210938 28.707031 22.371094 28.726562 L 22.367188 31.703125 C 22.367188 32 22.609375 32.242188 22.90625 32.242188 C 23.207031 32.242188 23.445312 32 23.445312 31.703125 L 23.449219 28.648438 L 23.503906 28.625 C 23.707031 28.5625 23.898438 28.476562 24.082031 28.363281 C 24.738281 27.964844 25.191406 27.304688 25.324219 26.546875 C 25.324219 26.535156 25.324219 26.527344 25.328125 26.515625 L 25.855469 20.777344 C 25.855469 20.777344 25.855469 20.777344 25.859375 20.777344 C 25.902344 20.371094 25.890625 19.980469 25.832031 19.605469 C 25.761719 19.121094 25.414062 18.09375 24.71875 17.46875 " fill-opacity="1" fill-rule="nonzero"/></g><g clip-path="url(#38cd8db1fc)"><path fill="#dd9b4e" d="M 7.15625 4.835938 C 9.160156 4.835938 10.792969 6.464844 10.792969 8.46875 C 10.792969 10.472656 9.160156 12.105469 7.15625 12.105469 C 5.152344 12.105469 3.523438 10.472656 3.523438 8.46875 C 3.523438 6.464844 5.152344 4.835938 7.15625 4.835938 Z M 7.15625 13.183594 C 8.417969 13.183594 9.597656 12.691406 10.488281 11.800781 C 11.378906 10.910156 11.871094 9.730469 11.871094 8.46875 C 11.871094 7.210938 11.378906 6.027344 10.488281 5.136719 C 9.597656 4.25 8.417969 3.757812 7.15625 3.757812 C 5.898438 3.757812 4.714844 4.25 3.824219 5.136719 C 2.9375 6.027344 2.445312 7.210938 2.445312 8.46875 C 2.445312 9.730469 2.9375 10.910156 3.824219 11.800781 C 4.714844 12.691406 5.898438 13.183594 7.15625 13.183594 " fill-opacity="1" fill-rule="nonzero"/></g><g clip-path="url(#a6fef2d19d)"><path fill="#dd9b4e" d="M 30.386719 4.835938 C 32.390625 4.835938 34.019531 6.464844 34.019531 8.46875 C 34.019531 10.472656 32.390625 12.105469 30.386719 12.105469 C 28.382812 12.105469 26.75 10.472656 26.75 8.46875 C 26.75 6.464844 28.382812 4.835938 30.386719 4.835938 Z M 30.386719 13.183594 C 31.644531 13.183594 32.828125 12.691406 33.71875 11.800781 C 34.609375 10.910156 35.097656 9.730469 35.097656 8.46875 C 35.097656 7.210938 34.609375 6.027344 33.71875 5.136719 C 32.828125 4.25 31.644531 3.757812 30.386719 3.757812 C 29.125 3.757812 27.945312 4.25 27.054688 5.136719 C 26.164062 6.027344 25.671875 7.210938 25.671875 8.46875 C 25.671875 9.730469 26.164062 10.910156 27.054688 11.800781 C 27.945312 12.691406 29.125 13.183594 30.386719 13.183594 " fill-opacity="1" fill-rule="nonzero"/></g><g clip-path="url(#a026465093)"><path fill="#dd9b4e" d="M 37.445312 17.046875 C 37.375 16.558594 37.03125 15.535156 36.332031 14.910156 C 35.636719 14.257812 34.804688 13.894531 33.773438 13.894531 L 27.050781 13.894531 C 26.171875 13.894531 25.359375 14.171875 24.710938 14.6875 C 24.589844 14.785156 24.511719 14.9375 24.511719 15.105469 C 24.511719 15.402344 24.75 15.644531 25.050781 15.644531 C 25.183594 15.644531 25.304688 15.597656 25.398438 15.515625 C 25.859375 15.160156 26.429688 14.972656 27.050781 14.972656 L 33.773438 14.972656 C 34.425781 14.972656 34.921875 15.175781 35.390625 15.53125 C 35.464844 15.597656 35.539062 15.660156 35.613281 15.722656 C 35.660156 15.765625 35.703125 15.8125 35.746094 15.859375 C 36.261719 16.433594 36.496094 17.234375 36.398438 18.105469 L 35.871094 23.820312 C 35.789062 24.261719 35.523438 24.648438 35.136719 24.882812 C 34.746094 25.121094 34.273438 25.175781 33.839844 25.039062 L 32.136719 24.492188 L 33.113281 24.175781 C 33.597656 24.019531 33.929688 23.582031 33.945312 23.078125 L 34.328125 18.960938 C 34.355469 18.667969 34.136719 18.402344 33.839844 18.375 C 33.546875 18.347656 33.28125 18.566406 33.253906 18.863281 L 33.074219 20.808594 L 27.746094 21.472656 C 27.472656 21.503906 27.265625 21.730469 27.265625 22.007812 C 27.265625 22.308594 27.503906 22.546875 27.804688 22.546875 C 27.824219 22.546875 27.847656 22.546875 27.867188 22.542969 L 32.96875 21.910156 L 32.871094 22.996094 C 32.867188 23.011719 32.867188 23.023438 32.867188 23.039062 C 32.867188 23.089844 32.835938 23.132812 32.785156 23.148438 L 27.148438 24.96875 C 26.917969 25.03125 26.75 25.238281 26.75 25.488281 C 26.75 25.785156 26.992188 26.027344 27.289062 26.027344 C 27.355469 26.027344 27.417969 26.015625 27.476562 25.996094 L 30.371094 25.0625 L 33.511719 26.066406 C 33.667969 26.113281 33.824219 26.148438 33.984375 26.167969 L 33.980469 29.144531 C 33.980469 29.441406 34.222656 29.683594 34.519531 29.683594 C 34.820312 29.683594 35.058594 29.441406 35.058594 29.144531 L 35.0625 26.089844 L 35.117188 26.066406 C 35.320312 26.003906 35.511719 25.917969 35.695312 25.804688 C 36.351562 25.40625 36.804688 24.746094 36.9375 23.988281 C 36.9375 23.976562 36.941406 23.964844 36.941406 23.957031 L 37.472656 18.21875 C 37.472656 18.21875 37.472656 18.21875 37.472656 18.214844 C 37.515625 17.8125 37.507812 17.421875 37.445312 17.046875 " fill-opacity="1" fill-rule="nonzero"/></g><path fill="#dd9b4e" d="M 9.984375 21.402344 C 9.984375 21.105469 9.742188 20.863281 9.445312 20.863281 C 9.410156 20.863281 9.378906 20.867188 9.347656 20.871094 L 4.5625 21.472656 L 4.359375 18.914062 C 4.339844 18.617188 4.078125 18.394531 3.78125 18.417969 C 3.484375 18.441406 3.261719 18.699219 3.285156 18.996094 L 3.492188 21.632812 C 3.492188 21.636719 3.492188 21.640625 3.492188 21.644531 C 3.523438 21.921875 3.660156 22.167969 3.878906 22.339844 C 4.058594 22.484375 4.28125 22.558594 4.507812 22.558594 C 4.550781 22.558594 4.597656 22.558594 4.640625 22.550781 L 9.496094 21.9375 C 9.769531 21.914062 9.984375 21.683594 9.984375 21.402344 " fill-opacity="1" fill-rule="nonzero"/><path fill="#dd9b4e" d="M 12.128906 15.488281 C 12.222656 15.578125 12.351562 15.632812 12.492188 15.632812 C 12.789062 15.632812 13.03125 15.390625 13.03125 15.09375 C 13.03125 14.914062 12.945312 14.757812 12.808594 14.660156 C 12.175781 14.164062 11.433594 13.894531 10.546875 13.894531 L 3.824219 13.894531 C 2.707031 13.894531 1.699219 14.34375 0.992188 15.152344 C 0.625 15.578125 0.355469 16.074219 0.199219 16.632812 C 0.0390625 17.203125 0 17.804688 0.0820312 18.425781 L 0.601562 23.945312 C 0.601562 23.960938 0.605469 23.976562 0.605469 23.988281 C 0.738281 24.746094 1.191406 25.40625 1.847656 25.804688 C 2.046875 25.925781 2.261719 26.019531 2.480469 26.082031 L 2.480469 29.144531 C 2.480469 29.441406 2.71875 29.683594 3.019531 29.683594 C 3.316406 29.683594 3.558594 29.441406 3.558594 29.144531 L 3.558594 26.167969 C 3.71875 26.148438 3.875 26.113281 4.03125 26.0625 L 7.144531 25.0625 L 9.820312 25.921875 C 9.824219 25.921875 9.824219 25.925781 9.824219 25.925781 C 9.875 25.941406 9.929688 25.949219 9.984375 25.949219 C 10.28125 25.949219 10.523438 25.707031 10.523438 25.410156 C 10.523438 25.167969 10.363281 24.960938 10.140625 24.894531 L 8.90625 24.492188 L 9.855469 24.179688 C 10.082031 24.113281 10.25 23.90625 10.25 23.660156 C 10.25 23.363281 10.007812 23.121094 9.710938 23.121094 C 9.640625 23.121094 9.570312 23.136719 9.511719 23.160156 L 3.703125 25.039062 C 3.269531 25.175781 2.796875 25.121094 2.40625 24.882812 C 2.019531 24.652344 1.753906 24.265625 1.671875 23.824219 L 1.15625 18.3125 C 1.15625 18.304688 1.152344 18.296875 1.152344 18.289062 C 1.023438 17.355469 1.257812 16.492188 1.804688 15.863281 C 2.304688 15.289062 3.023438 14.972656 3.824219 14.972656 L 10.546875 14.972656 C 11.191406 14.972656 11.660156 15.140625 12.128906 15.488281 " fill-opacity="1" fill-rule="nonzero"/></svg>