<svg xmlns="http://www.w3.org/2000/svg" xmlns:xlink="http://www.w3.org/1999/xlink" width="50" zoomAndPan="magnify" viewBox="0 0 37.5 37.499999" height="50" preserveAspectRatio="xMidYMid meet" version="1.0"><defs><clipPath id="267b608320"><path d="M 2 27 L 13 27 L 13 37.007812 L 2 37.007812 Z M 2 27 " clip-rule="nonzero"/></clipPath><clipPath id="89b4c48b8b"><path d="M 13 27 L 25 27 L 25 37.007812 L 13 37.007812 Z M 13 27 " clip-rule="nonzero"/></clipPath><clipPath id="06d0d346ea"><path d="M 1.640625 0 L 36.140625 0 L 36.140625 28 L 1.640625 28 Z M 1.640625 0 " clip-rule="nonzero"/></clipPath><clipPath id="7e36f70602"><path d="M 25 27 L 36 27 L 36 37.007812 L 25 37.007812 Z M 25 27 " clip-rule="nonzero"/></clipPath></defs><g clip-path="url(#267b608320)"><path fill="#dd9b4e" d="M 10.222656 37.027344 C 10.085938 37.027344 9.949219 36.992188 9.820312 36.925781 L 7.535156 35.734375 L 5.25 36.925781 C 4.957031 37.078125 4.605469 37.054688 4.339844 36.863281 C 4.074219 36.671875 3.941406 36.34375 3.996094 36.023438 L 4.433594 33.5 L 2.582031 31.710938 C 2.347656 31.484375 2.265625 31.144531 2.363281 30.835938 C 2.464844 30.523438 2.734375 30.296875 3.0625 30.25 L 5.617188 29.882812 L 6.761719 27.585938 C 7.050781 27.003906 8.015625 27.003906 8.308594 27.585938 L 9.453125 29.882812 L 12.007812 30.25 C 12.332031 30.296875 12.601562 30.523438 12.703125 30.832031 C 12.804688 31.144531 12.71875 31.480469 12.484375 31.707031 L 10.636719 33.496094 L 11.070312 36.023438 C 11.128906 36.34375 10.996094 36.667969 10.730469 36.859375 C 10.578125 36.96875 10.402344 37.027344 10.222656 37.027344 Z M 7.535156 33.914062 C 7.671875 33.914062 7.808594 33.945312 7.9375 34.011719 L 9.078125 34.605469 L 8.859375 33.34375 C 8.8125 33.070312 8.90625 32.785156 9.109375 32.585938 L 10.03125 31.695312 L 8.757812 31.511719 C 8.476562 31.46875 8.234375 31.292969 8.105469 31.042969 L 7.535156 29.894531 L 6.964844 31.042969 C 6.839844 31.292969 6.59375 31.46875 6.316406 31.511719 L 5.039062 31.695312 L 5.960938 32.585938 C 6.164062 32.785156 6.257812 33.066406 6.210938 33.34375 L 5.996094 34.605469 L 7.132812 34.011719 C 7.257812 33.945312 7.398438 33.914062 7.535156 33.914062 Z M 7.535156 33.914062 " fill-opacity="1" fill-rule="nonzero"/></g><g clip-path="url(#89b4c48b8b)"><path fill="#dd9b4e" d="M 21.585938 37.027344 C 21.449219 37.027344 21.308594 36.992188 21.183594 36.925781 L 18.898438 35.734375 L 16.613281 36.925781 C 16.320312 37.078125 15.96875 37.054688 15.703125 36.863281 C 15.4375 36.671875 15.304688 36.34375 15.359375 36.023438 L 15.796875 33.5 L 13.945312 31.710938 C 13.710938 31.484375 13.625 31.144531 13.726562 30.835938 C 13.828125 30.523438 14.097656 30.296875 14.421875 30.25 L 16.980469 29.882812 L 18.121094 27.585938 C 18.414062 27.003906 19.378906 27.003906 19.667969 27.585938 L 20.816406 29.882812 L 23.371094 30.25 C 23.695312 30.296875 23.964844 30.523438 24.066406 30.835938 C 24.167969 31.144531 24.082031 31.484375 23.847656 31.710938 L 21.996094 33.5 L 22.4375 36.023438 C 22.492188 36.34375 22.359375 36.671875 22.09375 36.859375 C 21.941406 36.96875 21.765625 37.027344 21.585938 37.027344 Z M 18.898438 33.914062 C 19.035156 33.914062 19.171875 33.945312 19.296875 34.011719 L 20.4375 34.605469 L 20.21875 33.34375 C 20.171875 33.070312 20.265625 32.785156 20.46875 32.585938 L 21.390625 31.695312 L 20.117188 31.511719 C 19.835938 31.46875 19.59375 31.292969 19.46875 31.042969 L 18.898438 29.894531 L 18.328125 31.042969 C 18.199219 31.292969 17.957031 31.46875 17.675781 31.511719 L 16.402344 31.695312 L 17.324219 32.585938 C 17.523438 32.785156 17.621094 33.066406 17.570312 33.34375 L 17.355469 34.605469 L 18.496094 34.011719 C 18.621094 33.945312 18.757812 33.914062 18.898438 33.914062 Z M 18.898438 33.914062 " fill-opacity="1" fill-rule="nonzero"/></g><g clip-path="url(#06d0d346ea)"><path fill="#dd9b4e" d="M 5.214844 26.828125 C 5.382812 26.488281 5.636719 26.222656 5.921875 25.996094 C 4.308594 23.566406 3.363281 20.667969 3.363281 17.550781 C 3.363281 9.054688 10.332031 2.144531 18.894531 2.144531 C 27.460938 2.144531 34.429688 9.054688 34.429688 17.550781 C 34.429688 20.667969 33.484375 23.574219 31.871094 26 C 32.15625 26.222656 32.410156 26.488281 32.578125 26.828125 L 32.914062 27.496094 C 34.945312 24.691406 36.152344 21.261719 36.152344 17.550781 C 36.15625 8.113281 28.414062 0.4375 18.898438 0.4375 C 9.382812 0.4375 1.640625 8.113281 1.640625 17.550781 C 1.640625 21.261719 2.851562 24.6875 4.878906 27.496094 Z M 5.214844 26.828125 " fill-opacity="1" fill-rule="nonzero"/></g><g clip-path="url(#7e36f70602)"><path fill="#dd9b4e" d="M 32.949219 37.027344 C 32.8125 37.027344 32.675781 36.992188 32.546875 36.925781 L 30.261719 35.734375 L 27.976562 36.925781 C 27.6875 37.078125 27.332031 37.054688 27.066406 36.863281 C 26.800781 36.671875 26.667969 36.34375 26.722656 36.023438 L 27.160156 33.5 L 25.308594 31.710938 C 25.074219 31.484375 24.992188 31.144531 25.089844 30.835938 C 25.191406 30.523438 25.460938 30.296875 25.789062 30.25 L 28.34375 29.882812 L 29.484375 27.585938 C 29.777344 27.003906 30.742188 27.003906 31.03125 27.585938 L 32.175781 29.882812 L 34.730469 30.25 C 35.058594 30.296875 35.324219 30.523438 35.429688 30.835938 C 35.53125 31.144531 35.445312 31.484375 35.210938 31.710938 L 33.359375 33.5 L 33.796875 36.023438 C 33.851562 36.34375 33.71875 36.671875 33.453125 36.859375 C 33.304688 36.96875 33.128906 37.027344 32.949219 37.027344 Z M 30.261719 33.914062 C 30.398438 33.914062 30.535156 33.945312 30.664062 34.011719 L 31.804688 34.605469 L 31.585938 33.34375 C 31.539062 33.070312 31.632812 32.785156 31.832031 32.585938 L 32.757812 31.695312 L 31.480469 31.511719 C 31.203125 31.46875 30.960938 31.292969 30.832031 31.042969 L 30.261719 29.894531 L 29.691406 31.042969 C 29.566406 31.292969 29.320312 31.46875 29.042969 31.511719 L 27.765625 31.695312 L 28.6875 32.585938 C 28.890625 32.785156 28.984375 33.066406 28.9375 33.34375 L 28.71875 34.605469 L 29.859375 34.011719 C 29.984375 33.945312 30.121094 33.914062 30.261719 33.914062 Z M 30.261719 33.914062 " fill-opacity="1" fill-rule="nonzero"/></g><path fill="#dd9b4e" d="M 30.019531 17.789062 C 30.019531 17.222656 29.785156 16.714844 29.414062 16.320312 C 29.699219 15.945312 29.855469 15.5 29.855469 15.035156 C 29.855469 13.800781 28.789062 12.800781 27.480469 12.800781 C 27.480469 12.800781 27.480469 12.800781 27.476562 12.800781 L 20.945312 12.804688 C 21.085938 12.058594 21.253906 11.125 21.285156 10.71875 C 21.414062 8.964844 21.570312 6.789062 19.773438 6.433594 C 18.136719 6.101562 17.097656 6.996094 16.617188 9.160156 C 16.3125 10.527344 15.570312 11.875 14.984375 12.796875 C 14.800781 12.351562 14.359375 12.035156 13.839844 12.035156 L 10.574219 12.035156 C 9.886719 12.035156 9.332031 12.589844 9.332031 13.269531 L 9.332031 23.933594 C 9.332031 24.617188 9.886719 25.167969 10.574219 25.167969 L 13.839844 25.167969 C 14.503906 25.167969 15.03125 24.652344 15.066406 24.007812 C 15.808594 24.742188 16.972656 25.53125 18.625 25.53125 L 25.847656 25.53125 C 27.15625 25.53125 28.222656 24.53125 28.226562 23.296875 C 28.226562 22.9375 28.125 22.605469 27.964844 22.304688 C 28.527344 21.898438 28.894531 21.261719 28.894531 20.542969 C 28.894531 20.269531 28.84375 20.007812 28.746094 19.765625 C 29.5 19.390625 30.019531 18.644531 30.019531 17.789062 Z M 12.207031 23.300781 C 11.613281 23.300781 11.136719 22.824219 11.136719 22.238281 C 11.136719 21.652344 11.613281 21.175781 12.207031 21.175781 C 12.796875 21.175781 13.273438 21.652344 13.273438 22.238281 C 13.277344 22.824219 12.796875 23.300781 12.207031 23.300781 Z M 27.640625 18.3125 L 26.519531 18.3125 L 25.523438 18.316406 C 25.046875 18.316406 24.660156 18.695312 24.660156 19.171875 C 24.660156 19.640625 25.046875 20.023438 25.523438 20.023438 L 26.519531 20.023438 C 26.871094 20.023438 27.171875 20.261719 27.171875 20.542969 C 27.171875 20.832031 26.878906 21.066406 26.519531 21.066406 L 25.855469 21.066406 C 25.851562 21.066406 25.851562 21.066406 25.847656 21.066406 L 25.019531 21.066406 C 24.542969 21.066406 24.15625 21.449219 24.15625 21.917969 C 24.15625 22.390625 24.542969 22.773438 25.019531 22.773438 L 25.847656 22.773438 C 26.199219 22.777344 26.496094 23.015625 26.5 23.292969 C 26.5 23.578125 26.199219 23.820312 25.84375 23.820312 L 18.625 23.820312 C 16.980469 23.820312 16.023438 22.582031 15.730469 22.136719 L 15.730469 14.761719 C 16.265625 14.042969 17.785156 11.847656 18.300781 9.53125 C 18.652344 7.953125 19.070312 8.039062 19.476562 8.105469 C 19.550781 8.199219 19.707031 8.632812 19.5625 10.59375 C 19.53125 11.03125 19.230469 12.601562 19.050781 13.492188 C 19 13.742188 19.0625 14.003906 19.230469 14.199219 C 19.394531 14.398438 19.636719 14.511719 19.894531 14.511719 L 27.476562 14.511719 C 27.832031 14.511719 28.128906 14.75 28.128906 15.035156 C 28.128906 15.183594 28.050781 15.292969 27.984375 15.359375 C 27.859375 15.480469 27.675781 15.554688 27.476562 15.554688 L 26.019531 15.554688 C 25.542969 15.554688 25.15625 15.9375 25.15625 16.40625 C 25.15625 16.882812 25.542969 17.265625 26.019531 17.265625 L 27.640625 17.265625 C 27.992188 17.265625 28.289062 17.503906 28.289062 17.785156 C 28.292969 18.074219 28 18.3125 27.640625 18.3125 Z M 27.640625 18.3125 " fill-opacity="1" fill-rule="nonzero"/></svg>