<svg xmlns="http://www.w3.org/2000/svg" xmlns:xlink="http://www.w3.org/1999/xlink" width="50" zoomAndPan="magnify" viewBox="0 0 37.5 37.499999" height="50" preserveAspectRatio="xMidYMid meet" version="1.0"><defs><clipPath id="abecb7e2bb"><path d="M 0 0 L 37.007812 0 L 37.007812 37.007812 L 0 37.007812 Z M 0 0 " clip-rule="nonzero"/></clipPath></defs><g clip-path="url(#abecb7e2bb)"><path fill="#dd9b4e" d="M 36.964844 9.835938 L 34.546875 9.488281 C 34.164062 9.4375 34.058594 9.125 34.03125 9.027344 C 34.007812 8.933594 33.953125 8.609375 34.261719 8.375 L 36.21875 6.910156 C 36.347656 6.8125 36.4375 6.664062 36.460938 6.5 C 36.484375 6.339844 36.441406 6.171875 36.34375 6.042969 L 34.101562 3.054688 C 34.003906 2.921875 33.855469 2.835938 33.695312 2.8125 C 33.527344 2.789062 33.363281 2.832031 33.234375 2.929688 L 31.277344 4.398438 C 30.96875 4.628906 30.671875 4.484375 30.585938 4.433594 C 30.503906 4.382812 30.234375 4.191406 30.289062 3.8125 L 30.636719 1.390625 C 30.683594 1.050781 30.445312 0.738281 30.105469 0.6875 L 26.414062 0.160156 C 26.25 0.136719 26.082031 0.179688 25.953125 0.28125 C 25.820312 0.378906 25.730469 0.527344 25.707031 0.6875 L 25.363281 3.109375 C 25.308594 3.488281 24.996094 3.597656 24.902344 3.621094 C 24.804688 3.648438 24.480469 3.703125 24.25 3.394531 L 22.785156 1.4375 C 22.683594 1.304688 22.539062 1.21875 22.375 1.195312 C 22.210938 1.171875 22.046875 1.214844 21.914062 1.3125 L 20.042969 2.714844 C 19.1875 2.628906 18.332031 2.625 17.5 2.714844 C 11.984375 3.324219 7.605469 7.78125 7.082031 13.3125 C 7.066406 13.484375 7.058594 13.660156 7.050781 13.835938 L 6.863281 13.835938 C 6.570312 13.835938 6.316406 14.042969 6.253906 14.332031 L 5.824219 16.375 L 4.105469 15.191406 C 3.859375 15.019531 3.527344 15.050781 3.3125 15.261719 L 1.449219 17.128906 C 1.234375 17.339844 1.207031 17.671875 1.375 17.921875 L 2.558594 19.640625 L 0.515625 20.070312 C 0.226562 20.128906 0.0234375 20.382812 0.0234375 20.679688 L 0.0234375 23.164062 C 0.0234375 23.460938 0.226562 23.714844 0.515625 23.773438 L 2.558594 24.203125 L 1.375 25.921875 C 1.207031 26.167969 1.234375 26.503906 1.449219 26.714844 L 3.3125 28.582031 C 3.527344 28.792969 3.859375 28.824219 4.105469 28.652344 L 5.824219 27.46875 L 6.253906 29.511719 C 6.316406 29.800781 6.570312 30.007812 6.863281 30.007812 L 9.351562 30.007812 C 9.644531 30.007812 9.898438 29.800781 9.960938 29.511719 L 10.390625 27.46875 L 12.109375 28.652344 C 12.355469 28.824219 12.6875 28.792969 12.898438 28.582031 L 13.867188 27.613281 L 13.867188 29.382812 C 13.867188 30.300781 14.371094 31.09375 15.113281 31.527344 L 15.113281 34.980469 C 15.113281 36.351562 16.226562 37.46875 17.597656 37.46875 L 20.085938 37.46875 C 21.457031 37.46875 22.574219 36.351562 22.574219 34.980469 L 22.574219 31.527344 C 23.316406 31.09375 23.820312 30.300781 23.820312 29.382812 L 23.820312 26.921875 C 23.820312 25.917969 24.355469 24.96875 25.257812 24.382812 C 25.769531 24.050781 26.265625 23.675781 26.722656 23.265625 L 25.890625 22.339844 C 25.480469 22.707031 25.042969 23.042969 24.582031 23.339844 C 23.324219 24.152344 22.574219 25.492188 22.574219 26.921875 L 22.574219 29.382812 C 22.574219 30.070312 22.015625 30.628906 21.332031 30.628906 L 16.355469 30.628906 C 15.667969 30.628906 15.113281 30.070312 15.113281 29.382812 L 15.113281 26.871094 C 15.113281 25.464844 14.375 24.15625 13.140625 23.359375 C 9.792969 21.210938 7.945312 17.40625 8.320312 13.429688 C 8.785156 8.484375 12.707031 4.5 17.636719 3.953125 C 17.992188 3.914062 18.347656 3.898438 18.710938 3.894531 C 18.703125 3.917969 18.6875 3.9375 18.6875 3.960938 C 18.664062 4.125 18.707031 4.292969 18.804688 4.421875 L 20.269531 6.378906 C 20.5 6.6875 20.359375 6.984375 20.308594 7.070312 C 20.257812 7.152344 20.0625 7.417969 19.683594 7.367188 L 17.265625 7.019531 C 16.925781 6.972656 16.609375 7.207031 16.5625 7.550781 L 16.035156 11.242188 C 16.011719 11.40625 16.054688 11.570312 16.152344 11.703125 C 16.25 11.835938 16.398438 11.921875 16.5625 11.945312 L 18.980469 12.292969 C 19.363281 12.347656 19.472656 12.660156 19.496094 12.753906 C 19.519531 12.847656 19.574219 13.175781 19.265625 13.40625 L 17.3125 14.871094 C 17.035156 15.078125 16.980469 15.46875 17.1875 15.742188 L 19.425781 18.726562 C 19.628906 19 20.019531 19.054688 20.296875 18.851562 L 22.25 17.386719 C 22.558594 17.152344 22.855469 17.296875 22.941406 17.347656 C 23.023438 17.398438 23.292969 17.589844 23.238281 17.96875 L 22.894531 20.390625 C 22.84375 20.730469 23.082031 21.042969 23.421875 21.09375 L 27.113281 21.621094 C 27.144531 21.625 27.171875 21.628906 27.203125 21.628906 C 27.335938 21.628906 27.46875 21.585938 27.574219 21.503906 C 27.707031 21.402344 27.796875 21.257812 27.820312 21.09375 L 28.164062 18.675781 C 28.21875 18.292969 28.53125 18.183594 28.625 18.160156 C 28.71875 18.136719 29.046875 18.082031 29.277344 18.390625 L 30.742188 20.34375 C 30.949219 20.617188 31.339844 20.671875 31.613281 20.46875 L 34.597656 18.230469 C 34.875 18.023438 34.929688 17.632812 34.722656 17.359375 L 33.257812 15.402344 C 33.027344 15.097656 33.171875 14.796875 33.21875 14.714844 C 33.269531 14.628906 33.460938 14.359375 33.84375 14.417969 L 36.261719 14.761719 C 36.605469 14.8125 36.917969 14.574219 36.964844 14.234375 L 37.492188 10.539062 C 37.515625 10.375 37.472656 10.210938 37.375 10.078125 C 37.277344 9.945312 37.128906 9.859375 36.964844 9.835938 Z M 8.128906 19.4375 C 8.699219 20.664062 9.476562 21.789062 10.4375 22.761719 C 10.089844 23.730469 9.160156 24.410156 8.105469 24.410156 C 6.734375 24.410156 5.621094 23.292969 5.621094 21.921875 C 5.621094 20.550781 6.734375 19.433594 8.105469 19.433594 C 8.113281 19.433594 8.121094 19.4375 8.128906 19.4375 Z M 20.085938 36.226562 L 17.597656 36.226562 C 16.914062 36.226562 16.355469 35.667969 16.355469 34.980469 L 16.355469 34.359375 L 21.332031 34.359375 L 21.332031 34.980469 C 21.332031 35.667969 20.773438 36.226562 20.085938 36.226562 Z M 21.332031 31.871094 L 21.332031 33.117188 L 16.355469 33.117188 L 16.355469 31.871094 Z M 13.722656 26 L 12.386719 27.335938 L 11.09375 26.445312 C 10.75 26.207031 10.316406 26.15625 9.925781 26.3125 C 9.539062 26.46875 9.257812 26.804688 9.171875 27.210938 L 8.847656 28.761719 L 7.367188 28.761719 L 7.042969 27.210938 C 6.957031 26.804688 6.675781 26.46875 6.289062 26.3125 C 5.898438 26.160156 5.464844 26.207031 5.121094 26.445312 L 3.828125 27.335938 L 2.695312 26.203125 L 3.585938 24.910156 C 3.820312 24.566406 3.871094 24.132812 3.71875 23.742188 C 3.5625 23.355469 3.226562 23.074219 2.816406 22.988281 L 1.265625 22.660156 L 1.265625 21.183594 L 2.816406 20.859375 C 3.226562 20.773438 3.5625 20.488281 3.71875 20.101562 C 3.871094 19.714844 3.820312 19.277344 3.585938 18.933594 L 2.695312 17.644531 L 3.828125 16.511719 L 5.121094 17.402344 C 5.464844 17.636719 5.898438 17.683594 6.285156 17.53125 C 6.675781 17.378906 6.957031 17.042969 7.042969 16.632812 L 7.152344 16.113281 C 7.253906 16.835938 7.417969 17.542969 7.644531 18.222656 C 5.804688 18.449219 4.375 20.019531 4.375 21.921875 C 4.375 23.980469 6.050781 25.652344 8.105469 25.652344 C 9.515625 25.652344 10.773438 24.839844 11.402344 23.632812 C 11.742188 23.90625 12.09375 24.167969 12.46875 24.410156 C 13.078125 24.800781 13.511719 25.363281 13.722656 26 Z M 35.824219 13.441406 L 34.019531 13.183594 C 33.25 13.074219 32.542969 13.417969 32.152344 14.082031 C 31.757812 14.742188 31.800781 15.535156 32.265625 16.148438 L 33.355469 17.609375 L 31.367188 19.097656 L 30.273438 17.644531 C 29.8125 17.027344 29.0625 16.761719 28.316406 16.957031 C 27.574219 17.144531 27.042969 17.738281 26.933594 18.5 L 26.675781 20.300781 L 24.214844 19.949219 L 24.472656 18.148438 C 24.582031 17.386719 24.234375 16.667969 23.574219 16.277344 C 22.914062 15.886719 22.121094 15.929688 21.503906 16.390625 L 20.046875 17.484375 L 18.554688 15.492188 L 20.011719 14.402344 C 20.628906 13.9375 20.890625 13.191406 20.699219 12.445312 C 20.507812 11.699219 19.917969 11.167969 19.15625 11.058594 L 17.355469 10.804688 L 17.707031 8.339844 L 19.507812 8.597656 C 20.273438 8.707031 20.984375 8.363281 21.378906 7.703125 C 21.769531 7.039062 21.726562 6.246094 21.265625 5.632812 L 20.171875 4.175781 L 22.160156 2.683594 L 23.253906 4.140625 C 23.714844 4.753906 24.464844 5.019531 25.210938 4.828125 C 25.957031 4.636719 26.484375 4.042969 26.59375 3.285156 L 26.851562 1.480469 L 29.316406 1.832031 L 29.058594 3.636719 C 28.949219 4.398438 29.292969 5.113281 29.953125 5.503906 C 30.613281 5.898438 31.410156 5.851562 32.023438 5.390625 L 33.480469 4.300781 L 34.972656 6.289062 L 33.515625 7.382812 C 32.902344 7.84375 32.636719 8.59375 32.828125 9.335938 C 33.019531 10.082031 33.609375 10.613281 34.371094 10.722656 L 36.175781 10.980469 Z M 35.824219 13.441406 " fill-opacity="1" fill-rule="nonzero"/></g><path fill="#dd9b4e" d="M 26.765625 5.917969 C 24.019531 5.917969 21.789062 8.148438 21.789062 10.890625 C 21.789062 13.636719 24.019531 15.867188 26.765625 15.867188 C 29.507812 15.867188 31.738281 13.636719 31.738281 10.890625 C 31.738281 8.148438 29.507812 5.917969 26.765625 5.917969 Z M 26.765625 14.625 C 24.707031 14.625 23.03125 12.949219 23.03125 10.890625 C 23.03125 8.832031 24.707031 7.160156 26.765625 7.160156 C 28.820312 7.160156 30.496094 8.832031 30.496094 10.890625 C 30.496094 12.949219 28.820312 14.625 26.765625 14.625 Z M 26.765625 14.625 " fill-opacity="1" fill-rule="nonzero"/><path fill="#dd9b4e" d="M 18.222656 27.519531 L 19.464844 27.519531 L 19.464844 29.382812 L 18.222656 29.382812 Z M 18.222656 27.519531 " fill-opacity="1" fill-rule="nonzero"/><path fill="#dd9b4e" d="M 16.125 21.410156 C 13.242188 20.28125 11.378906 17.554688 11.378906 14.457031 C 11.378906 11.882812 12.683594 9.523438 14.867188 8.144531 L 14.203125 7.09375 C 11.65625 8.699219 10.136719 11.453125 10.136719 14.457031 C 10.136719 18.070312 12.308594 21.253906 15.667969 22.570312 C 17.21875 23.175781 18.222656 24.628906 18.222656 26.273438 L 19.464844 26.273438 C 19.464844 24.113281 18.152344 22.207031 16.125 21.410156 Z M 16.125 21.410156 " fill-opacity="1" fill-rule="nonzero"/><path fill="#dd9b4e" d="M 30.660156 23.164062 L 35.011719 23.164062 L 35.011719 24.410156 L 30.660156 24.410156 Z M 30.660156 23.164062 " fill-opacity="1" fill-rule="nonzero"/><path fill="#dd9b4e" d="M 29.640625 27.375 L 30.433594 26.417969 L 34.167969 29.527344 L 33.371094 30.484375 Z M 29.640625 27.375 " fill-opacity="1" fill-rule="nonzero"/><path fill="#dd9b4e" d="M 26.929688 28.140625 L 28.171875 28.140625 L 28.171875 32.492188 L 26.929688 32.492188 Z M 26.929688 28.140625 " fill-opacity="1" fill-rule="nonzero"/><path fill="#dd9b4e" d="M 0.65625 10.746094 L 5.632812 9.503906 L 5.933594 10.707031 L 0.957031 11.953125 Z M 0.65625 10.746094 " fill-opacity="1" fill-rule="nonzero"/><path fill="#dd9b4e" d="M 1.691406 4.394531 L 2.414062 3.382812 L 6.765625 6.492188 L 6.042969 7.503906 Z M 1.691406 4.394531 " fill-opacity="1" fill-rule="nonzero"/><path fill="#dd9b4e" d="M 7.019531 0.308594 L 8.222656 0 L 9.496094 4.976562 L 8.289062 5.285156 Z M 7.019531 0.308594 " fill-opacity="1" fill-rule="nonzero"/></svg>