<svg xmlns="http://www.w3.org/2000/svg" xmlns:xlink="http://www.w3.org/1999/xlink" width="50" zoomAndPan="magnify" viewBox="0 0 37.5 37.499999" height="50" preserveAspectRatio="xMidYMid meet" version="1.0"><defs><clipPath id="bc598c7cab"><path d="M 0 6.515625 L 37.007812 6.515625 L 37.007812 31 L 0 31 Z M 0 6.515625 " clip-rule="nonzero"/></clipPath></defs><g clip-path="url(#bc598c7cab)"><path fill="#dd9b4e" d="M 23.125 6.570312 L 22.878906 6.570312 C 22.621094 6.570312 22.371094 6.621094 22.132812 6.714844 C 21.890625 6.8125 21.675781 6.949219 21.488281 7.125 C 21.300781 7.300781 21.148438 7.507812 21.039062 7.742188 C 20.925781 7.980469 20.863281 8.226562 20.84375 8.484375 C 15.925781 10.695312 10.777344 11.796875 5.398438 11.789062 L 4.949219 11.789062 C 4.386719 11.789062 3.84375 11.886719 3.316406 12.085938 C 2.789062 12.285156 2.3125 12.570312 1.890625 12.945312 C 1.464844 13.316406 1.121094 13.753906 0.851562 14.253906 C 0.582031 14.753906 0.410156 15.285156 0.332031 15.847656 C 0.253906 16.410156 0.273438 16.96875 0.394531 17.523438 C 0.519531 18.078125 0.730469 18.59375 1.039062 19.070312 C 1.34375 19.546875 1.722656 19.953125 2.175781 20.292969 C 2.625 20.628906 3.121094 20.878906 3.660156 21.035156 L 7.355469 29.921875 C 7.445312 30.136719 7.570312 30.320312 7.730469 30.484375 C 7.890625 30.644531 8.078125 30.769531 8.289062 30.855469 C 8.5 30.941406 8.71875 30.984375 8.945312 30.984375 C 9.171875 30.980469 9.390625 30.9375 9.601562 30.847656 C 9.808594 30.757812 9.992188 30.632812 10.152344 30.46875 C 10.3125 30.304688 10.4375 30.117188 10.523438 29.90625 C 10.609375 29.691406 10.652344 29.472656 10.648438 29.242188 C 10.648438 29.011719 10.605469 28.792969 10.515625 28.578125 L 8.691406 24.1875 C 8.992188 24.152344 9.28125 24.058594 9.546875 23.90625 C 9.8125 23.757812 10.042969 23.558594 10.230469 23.3125 C 10.417969 23.070312 10.550781 22.800781 10.632812 22.5 C 10.710938 22.203125 10.730469 21.898438 10.691406 21.589844 C 14.210938 22.089844 17.59375 23.066406 20.84375 24.523438 C 20.863281 24.785156 20.925781 25.03125 21.039062 25.265625 C 21.148438 25.5 21.300781 25.707031 21.488281 25.886719 C 21.675781 26.0625 21.890625 26.199219 22.132812 26.296875 C 22.371094 26.390625 22.621094 26.4375 22.878906 26.4375 L 23.125 26.4375 C 23.394531 26.4375 23.65625 26.386719 23.90625 26.28125 C 24.15625 26.175781 24.375 26.027344 24.566406 25.832031 C 24.757812 25.640625 24.90625 25.417969 25.011719 25.164062 C 25.113281 24.910156 25.167969 24.648438 25.167969 24.375 L 25.167969 8.636719 C 25.167969 8.363281 25.113281 8.097656 25.011719 7.847656 C 24.90625 7.59375 24.757812 7.371094 24.566406 7.175781 C 24.375 6.984375 24.15625 6.835938 23.90625 6.730469 C 23.65625 6.625 23.394531 6.570312 23.125 6.570312 Z M 14.296875 11.722656 C 16.539062 11.191406 18.71875 10.464844 20.835938 9.542969 L 20.835938 23.46875 C 18.71875 22.546875 16.539062 21.820312 14.296875 21.289062 Z M 13.34375 21.078125 C 12.890625 20.980469 12.4375 20.898438 11.976562 20.820312 L 11.976562 12.191406 C 12.4375 12.113281 12.890625 12.027344 13.34375 11.933594 Z M 1.238281 16.503906 C 1.238281 16.007812 1.332031 15.53125 1.523438 15.070312 C 1.710938 14.609375 1.976562 14.207031 2.324219 13.851562 C 2.671875 13.5 3.074219 13.230469 3.527344 13.039062 C 3.984375 12.847656 4.457031 12.753906 4.949219 12.753906 L 5.398438 12.753906 C 7.28125 12.753906 9.160156 12.617188 11.027344 12.34375 L 11.027344 20.667969 C 9.160156 20.394531 7.285156 20.257812 5.398438 20.257812 L 4.949219 20.257812 C 4.457031 20.257812 3.984375 20.160156 3.527344 19.972656 C 3.074219 19.78125 2.671875 19.507812 2.324219 19.15625 C 1.976562 18.804688 1.710938 18.398438 1.523438 17.941406 C 1.332031 17.480469 1.238281 17.003906 1.238281 16.503906 Z M 9.230469 29.960938 C 9.039062 30.042969 8.84375 30.042969 8.648438 29.964844 C 8.453125 29.882812 8.316406 29.746094 8.234375 29.550781 L 4.769531 21.210938 C 4.828125 21.214844 4.886719 21.222656 4.949219 21.222656 L 5.398438 21.222656 C 5.742188 21.222656 6.085938 21.226562 6.429688 21.234375 L 9.636719 28.953125 C 9.71875 29.148438 9.71875 29.34375 9.640625 29.542969 C 9.5625 29.738281 9.425781 29.878906 9.230469 29.960938 Z M 9.464844 22.738281 C 9.160156 23.121094 8.769531 23.28125 8.289062 23.222656 L 7.480469 21.277344 C 8.21875 21.316406 8.953125 21.378906 9.683594 21.464844 C 9.847656 21.929688 9.773438 22.355469 9.464844 22.738281 Z M 24.214844 24.375 C 24.214844 24.519531 24.1875 24.660156 24.128906 24.796875 C 24.074219 24.929688 23.996094 25.050781 23.894531 25.152344 C 23.792969 25.257812 23.675781 25.335938 23.542969 25.390625 C 23.410156 25.449219 23.269531 25.476562 23.125 25.476562 L 22.878906 25.476562 C 22.734375 25.476562 22.59375 25.449219 22.460938 25.390625 C 22.328125 25.335938 22.210938 25.257812 22.109375 25.152344 C 22.003906 25.050781 21.925781 24.929688 21.871094 24.796875 C 21.816406 24.660156 21.789062 24.519531 21.789062 24.375 L 21.789062 8.636719 C 21.789062 8.488281 21.816406 8.351562 21.871094 8.214844 C 21.925781 8.082031 22.003906 7.960938 22.109375 7.859375 C 22.210938 7.753906 22.328125 7.675781 22.460938 7.617188 C 22.59375 7.5625 22.734375 7.535156 22.878906 7.535156 L 23.125 7.535156 C 23.269531 7.535156 23.410156 7.5625 23.542969 7.617188 C 23.675781 7.675781 23.792969 7.753906 23.894531 7.859375 C 23.996094 7.960938 24.074219 8.082031 24.128906 8.214844 C 24.1875 8.351562 24.214844 8.488281 24.214844 8.636719 Z M 35.957031 15.007812 L 31.078125 15.007812 C 30.882812 15.007812 30.695312 15.046875 30.511719 15.121094 C 30.332031 15.199219 30.171875 15.304688 30.03125 15.445312 C 29.890625 15.585938 29.785156 15.75 29.710938 15.933594 C 29.632812 16.117188 29.597656 16.308594 29.597656 16.503906 C 29.597656 16.703125 29.632812 16.894531 29.710938 17.078125 C 29.785156 17.261719 29.890625 17.425781 30.03125 17.566406 C 30.171875 17.707031 30.332031 17.8125 30.511719 17.890625 C 30.695312 17.964844 30.882812 18.003906 31.078125 18.003906 L 35.957031 18.003906 C 36.152344 18.003906 36.34375 17.964844 36.523438 17.890625 C 36.703125 17.8125 36.867188 17.707031 37.003906 17.566406 C 37.144531 17.425781 37.25 17.261719 37.324219 17.078125 C 37.402344 16.894531 37.4375 16.703125 37.4375 16.503906 C 37.4375 16.308594 37.402344 16.117188 37.324219 15.933594 C 37.25 15.75 37.144531 15.585938 37.003906 15.445312 C 36.867188 15.304688 36.703125 15.199219 36.523438 15.121094 C 36.34375 15.046875 36.152344 15.007812 35.957031 15.007812 Z M 35.957031 17.039062 L 31.078125 17.039062 C 30.933594 17.039062 30.808594 16.988281 30.707031 16.882812 C 30.601562 16.777344 30.550781 16.652344 30.550781 16.503906 C 30.550781 16.359375 30.601562 16.230469 30.707031 16.128906 C 30.808594 16.023438 30.933594 15.972656 31.078125 15.972656 L 35.957031 15.972656 C 36.101562 15.972656 36.226562 16.023438 36.332031 16.128906 C 36.433594 16.230469 36.484375 16.359375 36.484375 16.503906 C 36.484375 16.652344 36.433594 16.777344 36.332031 16.882812 C 36.226562 16.988281 36.101562 17.039062 35.957031 17.039062 Z M 29.394531 12.316406 C 29.804688 12.316406 30.152344 12.171875 30.441406 11.878906 L 32.910156 9.382812 C 33.046875 9.242188 33.15625 9.082031 33.230469 8.898438 C 33.304688 8.714844 33.34375 8.523438 33.34375 8.324219 C 33.34375 8.125 33.304688 7.933594 33.230469 7.75 C 33.15625 7.566406 33.046875 7.40625 32.910156 7.265625 C 32.769531 7.125 32.609375 7.015625 32.429688 6.941406 C 32.246094 6.863281 32.058594 6.828125 31.863281 6.828125 C 31.667969 6.828125 31.476562 6.863281 31.296875 6.941406 C 31.113281 7.015625 30.953125 7.125 30.816406 7.265625 L 28.347656 9.761719 C 28.136719 9.976562 28 10.230469 27.941406 10.527344 C 27.882812 10.824219 27.914062 11.113281 28.027344 11.394531 C 28.140625 11.671875 28.324219 11.898438 28.574219 12.066406 C 28.820312 12.234375 29.09375 12.316406 29.394531 12.316406 Z M 29.023438 10.445312 L 31.488281 7.945312 C 31.59375 7.84375 31.71875 7.792969 31.863281 7.792969 C 32.007812 7.792969 32.132812 7.84375 32.234375 7.949219 C 32.339844 8.050781 32.390625 8.175781 32.390625 8.324219 C 32.390625 8.472656 32.339844 8.597656 32.234375 8.703125 L 29.765625 11.199219 C 29.664062 11.300781 29.539062 11.355469 29.394531 11.355469 C 29.25 11.355469 29.125 11.300781 29.023438 11.199219 C 28.917969 11.09375 28.867188 10.96875 28.867188 10.820312 C 28.867188 10.671875 28.917969 10.546875 29.023438 10.445312 Z M 30.441406 21.132812 C 30.300781 20.992188 30.140625 20.882812 29.960938 20.808594 C 29.78125 20.730469 29.589844 20.691406 29.394531 20.691406 C 29.199219 20.691406 29.007812 20.730469 28.828125 20.808594 C 28.648438 20.882812 28.488281 20.992188 28.347656 21.132812 C 28.210938 21.273438 28.101562 21.433594 28.027344 21.617188 C 27.953125 21.800781 27.914062 21.992188 27.914062 22.191406 C 27.914062 22.386719 27.953125 22.578125 28.027344 22.761719 C 28.101562 22.945312 28.210938 23.109375 28.347656 23.25 L 30.816406 25.746094 C 30.953125 25.886719 31.113281 25.992188 31.296875 26.070312 C 31.476562 26.144531 31.667969 26.183594 31.863281 26.183594 C 32.058594 26.183594 32.246094 26.144531 32.429688 26.070312 C 32.609375 25.992188 32.769531 25.886719 32.910156 25.746094 C 33.046875 25.605469 33.15625 25.441406 33.230469 25.257812 C 33.304688 25.074219 33.34375 24.886719 33.34375 24.6875 C 33.34375 24.488281 33.304688 24.296875 33.230469 24.113281 C 33.15625 23.929688 33.046875 23.769531 32.910156 23.628906 Z M 32.234375 25.0625 C 32.132812 25.167969 32.007812 25.21875 31.863281 25.21875 C 31.71875 25.21875 31.59375 25.167969 31.488281 25.0625 L 29.023438 22.566406 C 28.917969 22.464844 28.867188 22.335938 28.867188 22.191406 C 28.867188 22.042969 28.917969 21.917969 29.023438 21.8125 C 29.125 21.710938 29.25 21.65625 29.394531 21.65625 C 29.539062 21.65625 29.664062 21.710938 29.765625 21.8125 L 32.234375 24.308594 C 32.339844 24.414062 32.390625 24.539062 32.390625 24.6875 C 32.390625 24.832031 32.339844 24.960938 32.234375 25.0625 Z M 32.234375 25.0625 " fill-opacity="1" fill-rule="nonzero"/></g></svg>